<svg id="Layer_1" enable-background="new 0 0 512 512" height="512" viewBox="0 0 512 512" width="512" xmlns="http://www.w3.org/2000/svg"><g><g clip-rule="evenodd" fill-rule="evenodd"><path d="m76 30c0-11-9-20-20-20s-20 9-20 20v452c0 11 9 20 20 20s20-9 20-20v-180.887z" fill="#fff"/><path d="m209.334 38.364c-43.315 4.015-87.473 3.924-133.334-8.364v271.113c45.861 12.289 90.019 12.379 133.334 8.363z" fill="#60a4ff"/><path d="m209.334 38.364v271.113c22.285-2.066 44.347-5.218 66.303-8.355 22.374-3.197 44.643-6.379 67.029-8.461v-271.114c-22.386 2.083-44.656 5.265-67.029 8.462-21.956 3.137-44.018 6.29-66.303 8.355z" fill="#fff"/><path d="m342.667 21.547v271.113c43.466-4.045 87.371-3.951 133.333 8.207v-271.113c-45.962-12.158-89.868-12.253-133.333-8.207z" fill="#ff5a58"/></g><g><path d="m478.558 20.088c-71.61-18.945-139.084-9.304-204.334.021-61.04 8.721-124.092 17.733-189.328 1.844-3.527-12.645-15.141-21.953-28.896-21.953-16.542 0-30 13.458-30 30v452c0 16.542 13.458 30 30 30s30-13.458 30-30v-168.138c25.875 5.782 51.2 7.97 76.084 7.969 39.31-.001 77.512-5.457 114.968-10.809 66.188-9.458 128.705-18.391 196.39-.487 3.002.796 6.199.149 8.658-1.743 2.459-1.893 3.9-4.82 3.9-7.924v-271.113c0-4.538-3.056-8.507-7.442-9.667zm-412.558 461.912c0 5.514-4.486 10-10 10s-10-4.486-10-10v-452c0-5.514 4.486-10 10-10 5.514 0 10 4.486 10 10zm208.211-190.774c-18.112 2.588-36.404 5.196-54.877 7.177v-79.485c0-5.522-4.477-10-10-10s-10 4.478-10 10v81.343c-37.045 2.868-74.814 2.291-113.333-6.931v-250.587c38.902 8.693 76.569 9.258 113.333 6.486v79.689c0 5.522 4.477 10 10 10s10-4.478 10-10v-81.505c19.462-2.044 38.686-4.785 57.718-7.505 18.767-2.681 37.237-5.315 55.614-7.313v251.029c-19.711 2.065-39.179 4.847-58.455 7.602zm191.789-3.07c-38.876-8.575-76.548-9.111-113.333-6.34v-251.116c37.297-2.954 74.51-2.354 113.333 6.856z"/><path d="m209.334 163.917c-5.523 0-10 4.48-10 10.003s4.477 10 10 10 10-4.478 10-10v-.007c0-5.522-4.477-9.996-10-9.996z"/></g></g></svg>