<?xml version="1.0" encoding="iso-8859-1"?>
<!-- Generator: Adobe Illustrator 18.1.1, SVG Export Plug-In . SVG Version: 6.00 Build 0)  -->
<svg version="1.1" id="Capa_1" xmlns="http://www.w3.org/2000/svg" xmlns:xlink="http://www.w3.org/1999/xlink" x="0px" y="0px"
	 viewBox="0 0 42.753 42.753" style="enable-background:new 0 0 42.753 42.753;" xml:space="preserve">
<g>
	<path style="fill:#010002;" d="M11.835,8.449c1.466-3.339,2.968-6.243,3.742-7.691c-3.503,0.983-6.644,2.823-9.173,5.295
		C8.062,6.842,9.928,7.686,11.835,8.449z"/>
	<path style="fill:#010002;" d="M19.799,42.732c-1.258-1.568-4.064-5.175-6.629-9.208c-2.031,1.174-4.097,2.539-5.999,3.875
		C10.586,40.429,14.965,42.38,19.799,42.732z"/>
	<path style="fill:#010002;" d="M8.139,20.202c0.274-2.765,1.429-6.265,2.785-9.595c-2.211-0.881-4.355-1.858-6.183-2.74
		C1.976,11.269,0.254,15.539,0,20.202H8.139z"/>
	<path style="fill:#010002;" d="M20.202,10.839V0.001c-1.045,0.057-1.571,0.127-1.571,0.127c-0.04,0.072-2.598,4.647-4.591,9.15
		C16.279,10.076,18.434,10.669,20.202,10.839z"/>
	<path style="fill:#010002;" d="M20.202,28.063v-5.512h-9.663c0.397,2.154,1.76,4.973,3.466,7.844
		C16.215,29.256,18.367,28.376,20.202,28.063z"/>
	<path style="fill:#010002;" d="M20.202,30.457c-1.439,0.3-3.147,0.992-4.97,1.93c1.654,2.585,3.46,5.083,4.97,7.056V30.457z"/>
	<path style="fill:#010002;" d="M20.202,20.202v-7.009c-2.059-0.172-4.543-0.844-7.083-1.75c-1.265,3.085-2.344,6.283-2.626,8.759
		H20.202z"/>
	<path style="fill:#010002;" d="M5.475,35.714c1.952-1.387,4.196-2.883,6.465-4.192c-1.865-3.161-3.382-6.392-3.765-8.971H0.001
		C0.275,27.607,2.293,32.188,5.475,35.714z"/>
	<path style="fill:#010002;" d="M36.39,6.089c-1.68,1.169-3.513,2.377-5.387,3.467c1.536,3.628,2.915,7.587,3.219,10.645h8.53
		C42.453,14.685,40.088,9.721,36.39,6.089z"/>
	<path style="fill:#010002;" d="M34.186,22.551c-0.333,2.247-1.533,4.984-3.07,7.744c2.823,1.09,5.579,2.369,7.755,3.441
		c2.261-3.194,3.656-7.03,3.882-11.185H34.186z"/>
	<path style="fill:#010002;" d="M22.552,27.992c1.854,0.155,4.054,0.722,6.332,1.496c1.455-2.553,2.582-5.01,2.938-6.936h-9.27
		C22.552,22.552,22.552,27.992,22.552,27.992z"/>
	<path style="fill:#010002;" d="M22.552,42.753c5.888-0.32,11.132-3.004,14.813-7.134c-2.152-1.047-4.807-2.262-7.447-3.269
		c-2.735,4.485-5.982,8.672-7.366,10.397C22.552,42.747,22.552,42.753,22.552,42.753z"/>
	<path style="fill:#010002;" d="M22.552,38.928c1.595-2.11,3.455-4.73,5.106-7.387c-1.859-0.615-3.618-1.052-5.106-1.195
		C22.552,30.346,22.552,38.928,22.552,38.928z"/>
	<path style="fill:#010002;" d="M34.558,4.498c-2.286-1.789-4.941-3.113-7.836-3.856c0.672,1.257,1.981,3.772,3.33,6.748
		C31.571,6.492,33.098,5.497,34.558,4.498z"/>
	<path style="fill:#010002;" d="M22.552,20.202h9.317c-0.305-2.677-1.54-6.2-2.934-9.508c-2.276,1.188-4.497,2.106-6.383,2.429
		C22.552,13.123,22.552,20.202,22.552,20.202z"/>
	<path style="fill:#010002;" d="M22.552,0.001v10.727c1.562-0.326,3.445-1.125,5.442-2.184c-1.886-4.17-4.068-8.37-4.106-8.438
		C23.888,0.106,23.491,0.051,22.552,0.001z"/>
</g>
<g>
</g>
<g>
</g>
<g>
</g>
<g>
</g>
<g>
</g>
<g>
</g>
<g>
</g>
<g>
</g>
<g>
</g>
<g>
</g>
<g>
</g>
<g>
</g>
<g>
</g>
<g>
</g>
<g>
</g>
</svg>
